<?xml version="1.0" encoding="utf-8"?>
<!-- Generator: Adobe Illustrator 19.1.0, SVG Export Plug-In . SVG Version: 6.00 Build 0)  -->
<svg version="1.1" id="Layer_1" xmlns="http://www.w3.org/2000/svg" xmlns:xlink="http://www.w3.org/1999/xlink" x="0px" y="0px"
	 viewBox="0 0 504.1 747.1" style="enable-background:new 0 0 504.1 747.1;" xml:space="preserve">
<style type="text/css">
	.st0{display:none;fill:#EF486F;}
	.st1{display:none;fill:#4FBCE9;}
	.st2{fill:#FFFFFF;}
</style>
<path id="path-1" class="st0" d="M484.9,251.2c0,114.3-92.6,303.6-206.7,303.6S71.4,365.5,71.4,251.2C71.4,137,164,73.4,278.2,73.4
	S484.9,137,484.9,251.2z"/>
<path id="path-2" class="st1" d="M357.9,677.1c0,27.2-22,46.9-49.2,46.9h-65.3c-27.2,0-49.2-19.7-49.2-46.9L169,615.3h214.1
	L357.9,677.1z"/>
<path id="path-3" class="st2" d="M253.6,553.4c-123.1,0-223-193.6-223-319.9c0-116.1,89.6-194.2,223-194.2s223,78,223,194.2
	C476.6,359.8,376.7,553.4,253.6,553.4z M253.6,71.9c-94.8,0-190.4,50-190.4,161.6c0,108.2,89,287.3,190.4,287.3S444,341.7,444,233.5
	C444,121.9,348.4,71.9,253.6,71.9z"/>
<path id="path-4" class="st2" d="M284.2,717.1h-65.3c-35.5,0-63.6-26-65.4-59.7l-24.1-59.1c-2-5-1.5-10.7,1.6-15.2
	c3-4.5,8.1-7.2,13.5-7.2h214.1c5.4,0,10.5,2.7,13.5,7.2s3.6,10.2,1.6,15.2l-24.1,59.1C347.8,691.2,319.7,717.1,284.2,717.1z
	 M168.7,608.5l16,39.4c0.8,2,1.2,4.1,1.2,6.2c0,17.4,14.2,30.6,32.9,30.6h65.3c18.8,0,32.9-13.1,32.9-30.6c0-2.1,0.4-4.2,1.2-6.2
	l16-39.4H168.7z"/>
<path id="path-5" class="st2" d="M322.3,673.7h-152c-9,0-16.3-7.3-16.3-16.3c0-9,7.3-16.3,16.3-16.3h152c9,0,16.3,7.3,16.3,16.3
	C338.6,666.4,331.3,673.7,322.3,673.7z"/>
<path id="path-6" class="st2" d="M250.6,543.8c-6,0-11.8-3.4-14.7-9.2c-3.9-8.1-0.6-17.9,7.5-21.8c63.2-30.7,114-142.7,114-214.9
	c0-9,7.3-16.3,16.3-16.3s16.3,7.3,16.3,16.3c0,84.9-56.6,207.4-132.4,244.2C255.4,543.3,252.9,543.8,250.6,543.8z"/>
<path id="path-7" class="st2" d="M260.4,543.8c-2.4,0-4.8-0.5-7.1-1.7c-75.8-36.8-132.4-159.3-132.4-244.2c0-9,7.3-16.3,16.3-16.3
	s16.3,7.3,16.3,16.3c0,72.3,50.9,184.2,114,214.9c8.1,3.9,11.5,13.7,7.5,21.8C272.2,540.4,266.4,543.8,260.4,543.8z"/>
</svg>
